#!OML:ASF H:\MichaelJackson\Top Level 1\Subject 1\Session 1\male.ASF
:FULLY-SPECIFIED
:DEGREES
466
root 3.93455 15.7347 10.2001 -350.07 -2.71723 -8.06897
lowerback 9.3922 1.31542 2.45133
upperback 2.14126 2.03281 1.58429
thorax -3.01183 0.992944 0.0229782
lowerneck -3.69082 -4.22628 1.93552
upperneck -0.0905795 -5.77847 4.65029
head 0.669345 -2.84445 1.00887
rclavicle -2.14687e-014 -1.39149e-014
rhumerus -38.86 -15.3086 -77.205
rradius 85.4283
rwrist -27.2876
rhand 1.2034 -15.6488
rfingers 7.12502
rthumb 26.7425 -403.779
lclavicle -2.14687e-014 -1.39149e-014
lhumerus -44.681 -24.0668 105.622
lradius 69.7446
lwrist 15.7725
lhand -4.10551 7.57904
lfingers 7.12502
lthumb 21.6526 36.3883
rfemur -19.8046 -22.8989 18.4738
rtibia 50.3511
rfoot -26.4152 -16.6338
rtoes -28.5056
lfemur -48.1024 16.7519 -3.00482
ltibia 77.8436
lfoot -10.5362 15.7847
ltoes 7.65841
467
root 3.87669 15.7469 10.2224 -350.324 -3.59403 -8.28115
lowerback 9.62038 1.62613 2.81514
upperback 2.25873 2.48609 1.64693
thorax -2.99578 1.2156 -0.173432
lowerneck -3.70173 -4.15601 1.79526
upperneck -0.162768 -5.67277 4.43683
head 0.644256 -2.79529 0.968476
rclavicle -9.24349e-015 -7.55382e-015
rhumerus -38.8122 -16.0629 -78.2162
rradius 82.9969
rwrist -29.2276
rhand -12.3054 -18.5396
rfingers 7.12502
rthumb 13.7627 -408.064
lclavicle -9.24349e-015 -7.55382e-015
lhumerus -44.2783 -22.529 105.11
lradius 69.3396
lwrist 11.8641
lhand -7.53913 3.44742
lfingers 7.12502
lthumb 18.3522 32.6017
rfemur -19.3759 -23.2744 18.564
rtibia 50.0926
rfoot -26.648 -15.6194
rtoes -28.6049
lfemur -49.1122 18.9504 -4.24927
ltibia 81.2213
lfoot -10.0508 12.3961
ltoes 6.35537
468
root 3.82057 15.7573 10.2463 -350.573 -4.53103 -8.43951
lowerback 9.86193 1.92793 3.09946
upperback 2.36642 2.92088 1.69162
thorax -2.99567 1.42943 -0.343688
lowerneck -3.7261 -4.06577 1.71628
upperneck -0.176917 -5.54529 4.15853
head 0.635173 -2.73423 0.897585
rclavicle -2.16675e-014 6.36111e-015
rhumerus -38.5051 -16.6504 -79.2097
rradius 80.3094
rwrist -29.607
rhand -24.5343 -22.9788
rfingers 7.12502
rthumb 1.96136 -412.95
lclavicle -2.16675e-014 6.36111e-015
lhumerus -43.978 -20.9205 104.561
lradius 69.1456
lwrist 8.84451
lhand -11.0927 0.211387
lfingers 7.12502
lthumb 14.9312 29.6532
rfemur -18.9178 -23.4587 18.5876
rtibia 49.8162
rfoot -26.9127 -14.7624
rtoes -28.7289
lfemur -50.1232 21.2088 -5.54784
ltibia 84.6517
lfoot -9.76492 8.5587
ltoes 4.36512
469
root 3.76607 15.7654 10.2716 -350.837 -5.48091 -8.53972
lowerback 10.1389 2.20271 3.31291
upperback 2.46611 3.31476 1.71828
thorax -3.0236 1.62287 -0.491324
lowerneck -3.7293 -3.95257 1.69586
upperneck -0.178257 -5.38895 3.83333
head 0.623223 -2.65915 0.803699
rclavicle 1.21259e-014 1.90833e-014
rhumerus -37.9813 -17.1765 -80.1313
rradius 77.2079
rwrist -28.1041
rhand -34.0681 -29.7705
rfingers 7.12502
rthumb -7.24526 -419.626
lclavicle 1.21259e-014 1.90833e-014
lhumerus -43.7777 -19.2971 104.005
lradius 69.1716
lwrist 6.97098
lhand -14.5711 -2.17846
lfingers 7.12502
lthumb 11.5784 27.4817
rfemur -18.4221 -23.4651 18.5492
rtibia 49.5383
rfoot -27.1869 -14.096
rtoes -28.8577
lfemur -51.1229 23.4817 -6.90864
ltibia 88.0955
lfoot -9.70173 4.67975
ltoes 2.33989
470
root 3.71353 15.7715 10.298 -351.113 -6.42354 -8.60053
lowerback 10.4423 2.44345 3.47987
upperback 2.56313 3.66039 1.73432
thorax -3.06968 1.79223 -0.621285
lowerneck -3.6998 -3.81621 1.72415
upperneck -0.201618 -5.20181 3.47829
head 0.596984 -2.56972 0.694429
rclavicle 4.57205e-015 -1.74931e-014
rhumerus -37.2913 -17.731 -80.9232
rradius 73.6034
rwrist -24.7996
rhand -40.0309 -38.6394
rfingers 7.12502
rthumb -12.9976 -428.215
lclavicle 4.57205e-015 -1.74931e-014
lhumerus -43.6596 -17.7042 103.459
lradius 69.416
lwrist 6.36426
lhand -17.8306 -3.84767
lfingers 7.12502
lthumb 8.43379 25.9639
rfemur -17.9074 -23.2973 18.4787
rtibia 49.2724
rfoot -27.4401 -13.629
rtoes -28.9964
lfemur -52.1207 25.7571 -8.32676
ltibia 91.5174
lfoot -9.77323 1.10306
ltoes 0.746862
471
root 3.6636 15.7767 10.3259 -351.39 -7.32543 -8.65907
lowerback 10.7638 2.64268 3.65239
upperback 2.65727 3.95325 1.74766
thorax -3.12778 1.93499 -0.753436
lowerneck -3.63072 -3.66049 1.78274
upperneck -0.268838 -4.98793 3.12676
head 0.550649 -2.46795 0.583264
rclavicle -1.18277e-014 6.95746e-015
rhumerus -36.5054 -18.4014 -81.5312
rradius 69.5133
rwrist -20.1197
rhand -42.4132 -47.4243
rfingers 7.12502
rthumb -15.2932 -436.839
lclavicle -1.18277e-014 6.95746e-015
lhumerus -43.6109 -16.1885 102.938
lradius 69.8515
lwrist 7.02721
lhand -20.8207 -5.00042
lfingers 7.12502
lthumb 5.54742 24.907
rfemur -17.3868 -22.9918 18.4242
rtibia 49.0219
rfoot -27.6544 -13.3377
rtoes -29.1326
lfemur -53.1379 28.0052 -9.77791
ltibia 94.8793
lfoot -9.84323 -1.90135
ltoes -0.204686
472
root 3.61696 15.7813 10.3558 -351.65 -8.16704 -8.7479
lowerback 11.0811 2.80005 3.87223
upperback 2.75286 4.19669 1.76619
thorax -3.17879 2.05303 -0.901528
lowerneck -3.53371 -3.49511 1.86205
upperneck -0.390859 -4.76041 2.79759
head 0.484055 -2.36011 0.477055
rclavicle 5.27773e-014 2.50469e-014
rhumerus -35.6827 -19.2226 -81.9323
rradius 65.0766
rwrist -14.8461
rhand -42.2368 -53.2682
rfingers 7.12502
rthumb -15.1233 -442.696
lclavicle 5.27773e-014 2.50469e-014
lhumerus -43.5937 -14.7709 102.438
lradius 70.4153
lwrist 8.78386
lhand -23.5417 -5.93225
lfingers 7.12502
lthumb 2.91995 24.0275
rfemur -16.8731 -22.595 18.4235
rtibia 48.7805
rfoot -27.8113 -13.1926
rtoes -29.2924
lfemur -54.1892 30.1991 -11.2411
ltibia 98.1371
lfoot -9.82679 -4.17932
ltoes -0.410319
473
root 3.57387 15.7861 10.3888 -351.869 -8.93285 -8.89153
lowerback 11.3598 2.91886 4.16704
upperback 2.85164 4.397 1.79496
thorax -3.20013 2.14992 -1.07377
lowerneck -3.43375 -3.32655 1.94613
upperneck -0.553058 -4.52888 2.51543
head 0.407124 -2.25021 0.384922
rclavicle 6.21202e-015 1.82882e-014
rhumerus -34.8744 -20.1473 -82.1584
rradius 60.5135
rwrist -9.80485
rhand -40.9824 -54.8793
rfingers 7.12502
rthumb -13.9147 -444.394
lclavicle 6.21202e-015 1.82882e-014
lhumerus -43.5827 -13.4728 101.948
lradius 71.0472
lwrist 11.3566
lhand -26.003 -6.84131
lfingers 7.12502
lthumb 0.542858 23.1377
rfemur -16.3815 -22.1709 18.5043
rtibia 48.5333
rfoot -27.9042 -13.1447
rtoes -29.4908
lfemur -55.2935 32.306 -12.7026
ltibia 101.237
lfoot -9.68187 -5.68685
ltoes 0.170154
474
root 3.53412 15.7921 10.4255 -352.019 -9.61014 -9.09131
lowerback 11.5746 3.00688 4.53958
upperback 2.94692 4.56376 1.83142
thorax -3.18385 2.2308 -1.27345
lowerneck -3.35192 -3.16704 2.03316
upperneck -0.740146 -4.31058 2.28526
head 0.328092 -2.14647 0.307737
rclavicle -2.00276e-014 -2.46493e-014
rhumerus -34.1293 -21.0479 -82.2886
rradius 56.0602
rwrist -5.54831
rhand -39.6856 -52.6743
rfingers 7.12502
rthumb -12.6647 -442.27
lclavicle -2.00276e-014 -2.46493e-014
lhumerus -43.5637 -12.3067 101.454
lradius 71.669
lwrist 14.3691
lhand -28.2144 -7.87602
lfingers 7.12502
lthumb -1.59301 22.0978
rfemur -15.9291 -21.7701 18.6724
rtibia 48.2618
rfoot -27.9268 -13.1655
rtoes -29.7625
lfemur -56.4823 34.2806 -14.1814
ltibia 104.113
lfoot -9.40689 -6.46696
ltoes 1.3657
475
root 3.49716 15.8001 10.4663 -352.085 -10.198 -9.33976
lowerback 11.7045 3.07667 4.97394
upperback 3.03632 4.71022 1.87568
thorax -3.12165 2.30286 -1.49141
lowerneck -3.30958 -3.02468 2.11168
upperneck -0.930986 -4.11687 2.10951
head 0.256908 -2.05421 0.247293
rclavicle -1.65488e-014 5.96354e-015
rhumerus -33.4787 -21.8306 -82.3636
rradius 51.8781
rwrist -2.19343
rhand -38.6392 -47.8221
rfingers 7.12502
rthumb -11.6557 -437.478
lclavicle -1.65488e-014 5.96354e-015
lhumerus -43.522 -11.2869 100.956
lradius 72.1955
lwrist 17.4136
lhand -30.1908 -9.06499
lfingers 7.12502
lthumb -3.50176 20.886
rfemur -15.5209 -21.4207 18.9184
rtibia 47.9479
rfoot -27.8944 -13.2156
rtoes -30.0853
lfemur -57.7592 36.0726 -15.6821
ltibia 106.695
lfoot -9.03355 -6.64118
ltoes 3.04224
476
root 3.46217 15.8107 10.5117 -352.067 -10.7003 -9.60807
lowerback 11.7438 3.14088 5.43019
upperback 3.11678 4.84705 1.92376
thorax -3.01605 2.37185 -1.71019
lowerneck -3.31424 -2.90528 2.18193
upperneck -1.10989 -3.95585 1.9752
head 0.198838 -1.97742 0.199281
rclavicle 6.65929e-014 -1.98785e-015
rhumerus -32.943 -22.4425 -82.4052
rradius 48.0478
rwrist 0.485033
rhand -37.7224 -41.6368
rfingers 7.12502
rthumb -10.7715 -431.341
lclavicle 6.65929e-014 -1.98785e-015
lhumerus -43.4486 -10.4283 100.458
lradius 72.5547
lwrist 20.1427
lhand -31.9788 -10.3955
lfingers 7.12502
lthumb -5.22824 19.52
rfemur -15.1502 -21.1352 19.2071
rtibia 47.5764
rfoot -27.8215 -13.2741
rtoes -30.4625
lfemur -59.1109 37.6295 -17.2182
ltibia 108.914
lfoot -8.62061 -6.37128
ltoes 5.00432
477
root 3.42821 15.8239 10.5611 -351.972 -11.1188 -9.87056
lowerback 11.7047 3.20755 5.86895
upperback 3.18302 4.98016 1.97417
thorax -2.88223 2.44055 -1.91087
lowerneck -3.36026 -2.81063 2.24123
upperneck -1.27231 -3.82951 1.86819
head 0.153722 -1.91725 0.159981
rclavicle 2.77802e-014 -1.92821e-014
rhumerus -32.5326 -22.847 -82.4307
rradius 44.5786
rwrist 2.896
rhand -36.7242 -35.1714
rfingers 7.12502
rthumb -9.80854 -424.923
lclavicle 2.77802e-014 -1.92821e-014
lhumerus -43.339 -9.73336 99.969
lradius 72.6931
lwrist 22.3044
lhand -33.5751 -11.6861
lfingers 7.12502
lthumb -6.76944 18.1856
rfemur -14.8078 -20.9105 19.5083
rtibia 47.1405
rfoot -27.7356 -13.3195
rtoes -30.8407
lfemur -60.5157 38.8969 -18.7797
ltibia 110.715
lfoot -8.21242 -5.82413
ltoes 7.10625
478
root 3.39456 15.8394 10.614 -351.823 -11.468 -10.0986
lowerback 11.6102 3.28255 6.24376
upperback 3.23514 5.11276 2.02578
thorax -2.737 2.51014 -2.07077
lowerneck -3.44362 -2.73638 2.29335
upperneck -1.41493 -3.73203 1.76651
head 0.121163 -1.87093 0.122334
rclavicle 7.36994e-014 1.11319e-014
rhumerus -32.2467 -23.0567 -82.4433
rradius 41.4675
rwrist 5.35763
rhand -35.5563 -29.3623
rfingers 7.12502
rthumb -8.68164 -419.164
lclavicle 7.36994e-014 1.11319e-014
lhumerus -43.1909 -9.19339 99.4955
lradius 72.5831
lwrist 23.7656
lhand -34.9977 -12.7209
lfingers 7.12502
lthumb -8.14253 17.1022
rfemur -14.4757 -20.7281 19.7848
rtibia 46.6404
rfoot -27.6547 -13.3486
rtoes -31.2027
lfemur -61.9224 39.8443 -20.334
ltibia 112.057
lfoot -7.87037 -5.15357
ltoes 9.08473
479
root 3.36064 15.8564 10.6693 -351.643 -11.7534 -10.284
lowerback 11.4958 3.36515 6.5365
upperback 3.26983 5.24468 2.08005
thorax -2.60552 2.57945 -2.18105
lowerneck -3.55019 -2.67883 2.33937
upperneck -1.53811 -3.65801 1.65776
head 0.0983772 -1.83594 0.0827471
rclavicle 5.96354e-015 2.31584e-014
rhumerus -32.0955 -23.1391 -82.4259
rradius 38.7186
rwrist 7.98224
rhand -34.1438 -24.5973
rfingers 7.12502
rthumb -7.31842 -414.451
lclavicle 5.96354e-015 2.31584e-014
lhumerus -43.0125 -8.79743 99.0453
lradius 72.2195
lwrist 24.5228
lhand -36.2678 -13.3991
lfingers 7.12502
lthumb -9.36818 16.3727
rfemur -14.1373 -20.5706 20.024
rtibia 46.0863
rfoot -27.5938 -13.3686
rtoes -31.529
lfemur -63.2759 40.4531 -21.8159
ltibia 112.922
lfoot -7.63762 -4.47383
ltoes 10.7753
